<svg xmlns="http://www.w3.org/2000/svg" width="222" height="53" viewBox="0 0 222 53" version="1.1"><path d="M 14.970 13.250 C 1.847 19.879, 1.847 38.121, 14.970 44.750 C 20.614 47.601, 25.386 47.601, 31.030 44.750 C 44.153 38.121, 44.153 19.879, 31.030 13.250 C 28.580 12.012, 24.967 11, 23 11 C 21.033 11, 17.420 12.012, 14.970 13.250 M 207.291 15.109 C 205.706 16.694, 206.824 19, 209.177 19 C 210.622 19, 211.055 18.428, 210.820 16.828 C 210.443 14.272, 208.886 13.514, 207.291 15.109 M 51 28 C 51 39.333, 51.111 40, 53 40 C 54.889 40, 55 39.333, 55 28 C 55 16.667, 54.889 16, 53 16 C 51.111 16, 51 16.667, 51 28 M 60 28 C 60 39.333, 60.111 40, 62 40 C 63.889 40, 64 39.333, 64 28 C 64 16.667, 63.889 16, 62 16 C 60.111 16, 60 16.667, 60 28 M 100 19.500 C 100 21.056, 99.433 22, 98.500 22 C 97.675 22, 97 22.675, 97 23.500 C 97 24.325, 97.675 25, 98.500 25 C 99.675 25, 100 26.367, 100 31.300 C 100 38.297, 101.018 40, 105.200 40 C 108.462 40, 109.067 37.512, 106 36.710 C 104.301 36.266, 104 35.346, 104 30.594 C 104 25.667, 104.238 25, 106 25 C 107.111 25, 108 24.333, 108 23.500 C 108 22.667, 107.111 22, 106 22 C 104.533 22, 104 21.333, 104 19.500 C 104 17.667, 103.467 17, 102 17 C 100.533 17, 100 17.667, 100 19.500 M 132 19.500 C 132 20.875, 131.550 22, 131 22 C 130.450 22, 130 22.675, 130 23.500 C 130 24.325, 130.450 25, 131 25 C 131.554 25, 132 27.643, 132 30.929 C 132 34.985, 132.496 37.353, 133.571 38.429 C 135.601 40.458, 140 40.507, 140 38.500 C 140 37.675, 139.373 37, 138.607 37 C 136.761 37, 136 34.786, 136 29.418 C 136 25.667, 136.302 25, 138 25 C 139.100 25, 140 24.377, 140 23.617 C 140 22.856, 139.100 21.998, 138 21.710 C 136.803 21.397, 136 20.346, 136 19.094 C 136 17.667, 135.363 17, 134 17 C 132.533 17, 132 17.667, 132 19.500 M 17.074 20.309 C 14.640 21.514, 12.472 23.040, 12.258 23.699 C 12.043 24.359, 14.242 26.103, 17.145 27.574 C 21.923 29.995, 22.760 30.131, 25.962 29.016 C 30.819 27.324, 34 25.205, 34 23.661 C 34 22.460, 24.678 17.927, 22.481 18.059 C 21.941 18.091, 19.508 19.104, 17.074 20.309 M 18.755 21.848 C 16.695 22.756, 15.012 23.725, 15.015 24 C 15.018 24.275, 16.816 25.254, 19.010 26.176 C 22.743 27.743, 23.257 27.743, 26.990 26.176 C 29.184 25.254, 30.984 24.207, 30.990 23.848 C 30.999 23.272, 29.090 22.412, 24 20.700 C 23.175 20.422, 20.815 20.939, 18.755 21.848 M 75.223 22.557 C 73.977 23.429, 73 23.649, 73 23.057 C 73 22.476, 72.100 22, 71 22 C 69.148 22, 69 22.667, 69 31 C 69 39.263, 69.160 40, 70.954 40 C 72.668 40, 72.945 39.181, 73.204 33.354 C 73.432 28.227, 73.913 26.456, 75.309 25.604 C 78.139 23.876, 80 27.281, 80 34.191 C 80 39.290, 80.239 40, 81.956 40 C 83.691 40, 83.946 39.179, 84.206 32.750 C 84.489 25.762, 84.590 25.500, 87 25.500 C 89.410 25.500, 89.511 25.762, 89.794 32.750 C 90.054 39.179, 90.309 40, 92.044 40 C 93.822 40, 94 39.274, 94 32.023 C 94 24.517, 93.845 23.945, 91.375 22.326 C 88.904 20.707, 88.578 20.706, 85.794 22.303 C 83.146 23.823, 82.615 23.844, 80.696 22.500 C 78.048 20.645, 77.951 20.646, 75.223 22.557 M 147.359 22.445 C 139.165 26.010, 141.635 40, 150.457 40 C 155.214 40, 156.861 39.170, 158.537 35.928 C 161.410 30.372, 159.258 23.983, 153.881 22.108 C 152.132 21.499, 150.656 21.018, 150.601 21.039 C 150.545 21.061, 149.086 21.693, 147.359 22.445 M 171 21.729 C 170.175 22.043, 169.169 22.795, 168.765 23.400 C 168.257 24.161, 168.026 24.115, 168.015 23.250 C 168.007 22.563, 167.100 22, 166 22 C 164.148 22, 164 22.667, 164 31 C 164 39.333, 164.148 40, 166 40 C 167.788 40, 168 39.333, 168 33.700 C 168 27.182, 169.053 25, 172.200 25 C 173.333 25, 174 24.259, 174 23 C 174 20.937, 173.565 20.752, 171 21.729 M 192.354 21.718 C 191.174 21.934, 189.426 22.977, 188.468 24.035 C 186.867 25.805, 186.859 26.009, 188.377 26.591 C 189.283 26.939, 190.670 26.689, 191.458 26.035 C 193.390 24.431, 197.406 25.115, 197.787 27.112 C 198.016 28.317, 197.061 28.863, 194.008 29.272 C 188.904 29.957, 187 31.492, 187 34.922 C 187 38.437, 188.694 40, 192.500 40 C 194.205 40, 196.140 39.460, 196.800 38.800 C 197.733 37.867, 198 37.867, 198 38.800 C 198 39.460, 198.900 40, 200 40 C 201.831 40, 202 39.333, 202 32.122 C 202 27.012, 201.561 23.899, 200.750 23.260 C 199.111 21.970, 195.047 21.223, 192.354 21.718 M 111 28.777 C 111 33.293, 111.520 36.297, 112.557 37.777 C 114.233 40.171, 117.866 40.677, 121.066 38.965 C 122.399 38.251, 123 38.251, 123 38.965 C 123 39.534, 123.900 40, 125 40 C 126.852 40, 127 39.333, 127 31 C 127 22.667, 126.852 22, 125 22 C 123.225 22, 123 22.667, 123 27.929 C 123 35.762, 120.187 39.044, 116.571 35.429 C 115.496 34.353, 115 31.985, 115 27.929 C 115 22.667, 114.775 22, 113 22 C 111.197 22, 111 22.667, 111 28.777 M 207 31 C 207 39.333, 207.148 40, 209 40 C 210.852 40, 211 39.333, 211 31 C 211 22.667, 210.852 22, 209 22 C 207.148 22, 207 22.667, 207 31 M 148.238 26.162 C 146.534 27.866, 146.679 34.488, 148.452 35.960 C 150.624 37.762, 153.321 36.818, 154.797 33.738 C 157.230 28.661, 151.898 22.502, 148.238 26.162 M 12 29.816 C 12 30.265, 14.504 31.670, 17.565 32.939 C 23.051 35.213, 23.189 35.220, 27.315 33.444 C 32.336 31.283, 35.269 28.987, 32.964 29.022 C 32.159 29.034, 29.587 29.912, 27.250 30.973 C 23.052 32.879, 22.948 32.879, 18.750 30.973 C 14.167 28.893, 12 28.521, 12 29.816 M 192.104 32.914 C 190.257 34.084, 191.445 37, 193.769 37 C 195.902 37, 198 35.165, 198 33.300 C 198 31.827, 194.213 31.579, 192.104 32.914 M 12 34.816 C 12 35.265, 14.504 36.670, 17.565 37.939 C 23.051 40.213, 23.189 40.220, 27.315 38.444 C 32.336 36.283, 35.269 33.987, 32.964 34.022 C 32.159 34.034, 29.587 34.912, 27.250 35.973 C 23.052 37.879, 22.948 37.879, 18.750 35.973 C 14.167 33.893, 12 33.521, 12 34.816 M 177.380 36.452 C 176.617 38.441, 177.747 40, 179.952 40 C 182.189 40, 183.258 37.658, 181.722 36.122 C 180.161 34.561, 178.044 34.722, 177.380 36.452" stroke="none" fill="#248fa9" fill-rule="evenodd"/><path d="M 0 26.504 L 0 53.009 111.250 52.754 L 222.500 52.500 222.767 26.250 L 223.033 0 111.517 0 L 0 0 0 26.504 M 0.437 27 C 0.437 41.575, 0.577 47.537, 0.747 40.250 C 0.918 32.962, 0.918 21.037, 0.747 13.750 C 0.577 6.462, 0.437 12.425, 0.437 27 M 14.970 13.250 C 1.847 19.879, 1.847 38.121, 14.970 44.750 C 20.614 47.601, 25.386 47.601, 31.030 44.750 C 44.153 38.121, 44.153 19.879, 31.030 13.250 C 28.580 12.012, 24.967 11, 23 11 C 21.033 11, 17.420 12.012, 14.970 13.250 M 207.291 15.109 C 205.706 16.694, 206.824 19, 209.177 19 C 210.622 19, 211.055 18.428, 210.820 16.828 C 210.443 14.272, 208.886 13.514, 207.291 15.109 M 51 28 C 51 39.333, 51.111 40, 53 40 C 54.889 40, 55 39.333, 55 28 C 55 16.667, 54.889 16, 53 16 C 51.111 16, 51 16.667, 51 28 M 60 28 C 60 39.333, 60.111 40, 62 40 C 63.889 40, 64 39.333, 64 28 C 64 16.667, 63.889 16, 62 16 C 60.111 16, 60 16.667, 60 28 M 100 19.500 C 100 21.056, 99.433 22, 98.500 22 C 97.675 22, 97 22.675, 97 23.500 C 97 24.325, 97.675 25, 98.500 25 C 99.675 25, 100 26.367, 100 31.300 C 100 38.297, 101.018 40, 105.200 40 C 108.462 40, 109.067 37.512, 106 36.710 C 104.301 36.266, 104 35.346, 104 30.594 C 104 25.667, 104.238 25, 106 25 C 107.111 25, 108 24.333, 108 23.500 C 108 22.667, 107.111 22, 106 22 C 104.533 22, 104 21.333, 104 19.500 C 104 17.667, 103.467 17, 102 17 C 100.533 17, 100 17.667, 100 19.500 M 132 19.500 C 132 20.875, 131.550 22, 131 22 C 130.450 22, 130 22.675, 130 23.500 C 130 24.325, 130.450 25, 131 25 C 131.554 25, 132 27.643, 132 30.929 C 132 34.985, 132.496 37.353, 133.571 38.429 C 135.601 40.458, 140 40.507, 140 38.500 C 140 37.675, 139.373 37, 138.607 37 C 136.761 37, 136 34.786, 136 29.418 C 136 25.667, 136.302 25, 138 25 C 139.100 25, 140 24.377, 140 23.617 C 140 22.856, 139.100 21.998, 138 21.710 C 136.803 21.397, 136 20.346, 136 19.094 C 136 17.667, 135.363 17, 134 17 C 132.533 17, 132 17.667, 132 19.500 M 17.074 20.309 C 14.640 21.514, 12.472 23.040, 12.258 23.699 C 12.043 24.359, 14.242 26.103, 17.145 27.574 C 21.923 29.995, 22.760 30.131, 25.962 29.016 C 30.819 27.324, 34 25.205, 34 23.661 C 34 22.460, 24.678 17.927, 22.481 18.059 C 21.941 18.091, 19.508 19.104, 17.074 20.309 M 18.755 21.848 C 16.695 22.756, 15.012 23.725, 15.015 24 C 15.018 24.275, 16.816 25.254, 19.010 26.176 C 22.743 27.743, 23.257 27.743, 26.990 26.176 C 29.184 25.254, 30.984 24.207, 30.990 23.848 C 30.999 23.272, 29.090 22.412, 24 20.700 C 23.175 20.422, 20.815 20.939, 18.755 21.848 M 75.223 22.557 C 73.977 23.429, 73 23.649, 73 23.057 C 73 22.476, 72.100 22, 71 22 C 69.148 22, 69 22.667, 69 31 C 69 39.263, 69.160 40, 70.954 40 C 72.668 40, 72.945 39.181, 73.204 33.354 C 73.432 28.227, 73.913 26.456, 75.309 25.604 C 78.139 23.876, 80 27.281, 80 34.191 C 80 39.290, 80.239 40, 81.956 40 C 83.691 40, 83.946 39.179, 84.206 32.750 C 84.489 25.762, 84.590 25.500, 87 25.500 C 89.410 25.500, 89.511 25.762, 89.794 32.750 C 90.054 39.179, 90.309 40, 92.044 40 C 93.822 40, 94 39.274, 94 32.023 C 94 24.517, 93.845 23.945, 91.375 22.326 C 88.904 20.707, 88.578 20.706, 85.794 22.303 C 83.146 23.823, 82.615 23.844, 80.696 22.500 C 78.048 20.645, 77.951 20.646, 75.223 22.557 M 147.359 22.445 C 139.165 26.010, 141.635 40, 150.457 40 C 155.214 40, 156.861 39.170, 158.537 35.928 C 161.410 30.372, 159.258 23.983, 153.881 22.108 C 152.132 21.499, 150.656 21.018, 150.601 21.039 C 150.545 21.061, 149.086 21.693, 147.359 22.445 M 171 21.729 C 170.175 22.043, 169.169 22.795, 168.765 23.400 C 168.257 24.161, 168.026 24.115, 168.015 23.250 C 168.007 22.563, 167.100 22, 166 22 C 164.148 22, 164 22.667, 164 31 C 164 39.333, 164.148 40, 166 40 C 167.788 40, 168 39.333, 168 33.700 C 168 27.182, 169.053 25, 172.200 25 C 173.333 25, 174 24.259, 174 23 C 174 20.937, 173.565 20.752, 171 21.729 M 192.354 21.718 C 191.174 21.934, 189.426 22.977, 188.468 24.035 C 186.867 25.805, 186.859 26.009, 188.377 26.591 C 189.283 26.939, 190.670 26.689, 191.458 26.035 C 193.390 24.431, 197.406 25.115, 197.787 27.112 C 198.016 28.317, 197.061 28.863, 194.008 29.272 C 188.904 29.957, 187 31.492, 187 34.922 C 187 38.437, 188.694 40, 192.500 40 C 194.205 40, 196.140 39.460, 196.800 38.800 C 197.733 37.867, 198 37.867, 198 38.800 C 198 39.460, 198.900 40, 200 40 C 201.831 40, 202 39.333, 202 32.122 C 202 27.012, 201.561 23.899, 200.750 23.260 C 199.111 21.970, 195.047 21.223, 192.354 21.718 M 111 28.777 C 111 33.293, 111.520 36.297, 112.557 37.777 C 114.233 40.171, 117.866 40.677, 121.066 38.965 C 122.399 38.251, 123 38.251, 123 38.965 C 123 39.534, 123.900 40, 125 40 C 126.852 40, 127 39.333, 127 31 C 127 22.667, 126.852 22, 125 22 C 123.225 22, 123 22.667, 123 27.929 C 123 35.762, 120.187 39.044, 116.571 35.429 C 115.496 34.353, 115 31.985, 115 27.929 C 115 22.667, 114.775 22, 113 22 C 111.197 22, 111 22.667, 111 28.777 M 207 31 C 207 39.333, 207.148 40, 209 40 C 210.852 40, 211 39.333, 211 31 C 211 22.667, 210.852 22, 209 22 C 207.148 22, 207 22.667, 207 31 M 148.238 26.162 C 146.534 27.866, 146.679 34.488, 148.452 35.960 C 150.624 37.762, 153.321 36.818, 154.797 33.738 C 157.230 28.661, 151.898 22.502, 148.238 26.162 M 12 29.816 C 12 30.265, 14.504 31.670, 17.565 32.939 C 23.051 35.213, 23.189 35.220, 27.315 33.444 C 32.336 31.283, 35.269 28.987, 32.964 29.022 C 32.159 29.034, 29.587 29.912, 27.250 30.973 C 23.052 32.879, 22.948 32.879, 18.750 30.973 C 14.167 28.893, 12 28.521, 12 29.816 M 192.104 32.914 C 190.257 34.084, 191.445 37, 193.769 37 C 195.902 37, 198 35.165, 198 33.300 C 198 31.827, 194.213 31.579, 192.104 32.914 M 12 34.816 C 12 35.265, 14.504 36.670, 17.565 37.939 C 23.051 40.213, 23.189 40.220, 27.315 38.444 C 32.336 36.283, 35.269 33.987, 32.964 34.022 C 32.159 34.034, 29.587 34.912, 27.250 35.973 C 23.052 37.879, 22.948 37.879, 18.750 35.973 C 14.167 33.893, 12 33.521, 12 34.816 M 177.380 36.452 C 176.617 38.441, 177.747 40, 179.952 40 C 182.189 40, 183.258 37.658, 181.722 36.122 C 180.161 34.561, 178.044 34.722, 177.380 36.452" stroke="none" fill="#f8fafa" fill-rule="evenodd"/></svg>